<svg xmlns="http://www.w3.org/2000/svg" width="57" height="24"><path d="M2.02 0h52.96C56.098 0 57 .895 57 2v20c0 1.105-.902 2-2.02 2H2.02A2.01 2.01 0 0 1 0 22V2C0 .895.902 0 2.02 0m0 0" style="stroke:none;fill-rule:nonzero;fill:#6322d0;fill-opacity:1"/><path d="M25.656 5.77v4.277q.3-.001.582-.067c.477-.109.899-.347 1.23-.68a2.5 2.5 0 0 0 .75-1.796V5.77Zm.965 5.058a2.54 2.54 0 0 0-.965 1.992v5.43h2.563v-7.973c-.602 0-1.157.207-1.598.551m10.254.73a3 3 0 0 0-.234-.09c-.555-.202-1.141-.335-1.707-.468a18 18 0 0 1-1.008-.246c-.52-.14-1.024-.29-1.492-.504-.48-.223-.692-.625-.633-1.195.035-.352.238-.625.496-.817.176-.133.375-.226.562-.285a3.6 3.6 0 0 1 1.024-.148c.297 0 .758.039 1.191.238.23.105.453.254.637.465.187.207.34.476.45.789.003.012.01.043.023.082.12.441.156.574.355.574h.043l.023-.008q.044-.005.09-.015l.98-.18.727-.129.23-.059-.046-.214c-.008-.036-.012-.07-.023-.106a5 5 0 0 0-.145-.597c-.148-.48-.426-1.137-.898-1.586 0 0 0-.004-.004-.004a4.1 4.1 0 0 0-1.024-.7l-.023-.015-.016-.004a5.4 5.4 0 0 0-1.348-.453 7 7 0 0 0-.503-.078 6 6 0 0 0-.63-.035c-.535 0-1.081.07-1.605.199-1.254.32-2.363 1.02-2.851 2.074a2.8 2.8 0 0 0-.243.871 2.8 2.8 0 0 0 .192 1.399c.285.699.848 1.32 1.637 1.769q.303.176.66.316c.246.082.523.165.863.258.16.043.316.086.477.133q.34.088.68.188c.222.066.452.117.671.168.348.082.676.156.988.277q.136.054.254.113c.532.274.77.68.707 1.203-.054.512-.394.867-.851 1.09-.387.184-.864.274-1.324.274q-.293 0-.555-.047a4.8 4.8 0 0 1-1.074-.313c-1.274-.558-1.508-1.5-1.598-1.855a.6.6 0 0 0-.082-.219l-.09-.117-.285.062c-.457.098-.895.196-1.324.29l-.45.097.036.215q.107.634.308 1.18.043.106.09.207c.461 1.015 1.356 1.77 2.594 2.195l.039.015a8.656 8.656 0 0 0 1.402.281q.34.038.703.04c2.243 0 4.758-1.024 4.985-3.262q.01-.105.015-.21c0-.024.004-.044.004-.067v-.024c.02-1.414-.675-2.43-2.07-3.011M24.352 6.825c0-.008 0-.011-.004-.02a1.5 1.5 0 0 0-.059-.214q-.004-.007-.008-.02a1 1 0 0 0-.101-.195c-.004-.012-.012-.016-.016-.023a1 1 0 0 0-.137-.176q-.009-.013-.02-.02A1.2 1.2 0 0 0 23.825 6q-.004-.005-.008-.004a1.3 1.3 0 0 0-.464-.2h-.004a1 1 0 0 0-.23-.023q-.012-.001-.02-.003h-.008q-.11 0-.219.023h-.02a1.4 1.4 0 0 0-.214.062c-.008.004-.016.004-.024.008a1 1 0 0 0-.07.032 1 1 0 0 0-.125.07l-.027.012a3 3 0 0 0-.176.136c-.004.008-.012.012-.02.02-.054.054-.11.117-.156.18q-.002.006-.004.007l-.008.008v.004l-.77 1.106-2.562 3.687-1.23 1.77V7.043a1.3 1.3 0 0 0-.02-.219c0-.008-.004-.011-.004-.02a1.5 1.5 0 0 0-.062-.214q-.004-.007-.008-.02a1 1 0 0 0-.101-.195c-.004-.012-.008-.016-.012-.023a1.5 1.5 0 0 0-.156-.196A1.4 1.4 0 0 0 16.914 6q.001-.005-.004-.004h-.004a1.3 1.3 0 0 0-.46-.2h-.005a1 1 0 0 0-.234-.023q-.011-.001-.016-.003h-.007q-.113 0-.22.023h-.023a1.4 1.4 0 0 0-.214.062c-.008.004-.016.004-.024.008a1.3 1.3 0 0 0-.195.102l-.024.012a2 2 0 0 0-.175.136c-.008.008-.016.012-.02.02-.059.054-.11.117-.156.18-.004.003-.004.007-.008.007l-.004.008v.004l-.77 1.106-2.566 3.687-1.226 1.77-2.34 3.363a1.26 1.26 0 0 0-.203.957c.011.074.035.148.058.219a.98.98 0 0 0 .262.41q.01.012.02.02c.058.058.12.113.183.156q.007.003.008.007h.004q.071.051.148.09a1.86 1.86 0 0 0 .195.078h.016q.074.024.149.035c.02.004.03.004.046.008.051.008.106.008.157.012h.031c.039-.004.082-.004.121-.008.016 0 .027-.004.043-.008.035-.004.066-.011.102-.015l.043-.012.093-.027q.024-.011.047-.016.045-.02.09-.039.016-.012.04-.023.058-.03.112-.063c.012-.008.02-.02.032-.023.027-.024.058-.043.086-.067q.022-.018.039-.035l.066-.066c.012-.016.023-.024.035-.04a1 1 0 0 0 .074-.093c.004-.004.012-.008.012-.016l.008-.008v-.003l1.45-2.083 2.566-3.69.546-.786v-.004 5.855a1.3 1.3 0 0 0 .086.454c.004.003.004.011.008.015q.043.105.102.2l.011.019c.043.062.086.125.141.18q.01.008.02.015a1 1 0 0 0 .183.157q.001.003.008.007.075.051.156.09.013.005.032.016.076.034.16.062h.015a1 1 0 0 0 .149.035l.047.008c.05.008.101.008.152.012h.031q.063-.004.125-.008.023-.001.04-.008l.105-.015.039-.012c.035-.008.066-.02.097-.027.012-.008.032-.012.043-.016q.049-.02.09-.039l.043-.023q.058-.03.11-.063c.011-.008.023-.02.03-.023.032-.024.06-.043.09-.067q.02-.018.04-.035.033-.036.066-.066c.012-.016.024-.024.035-.04a.5.5 0 0 0 .07-.093.03.03 0 0 0 .016-.016l.008-.008v-.003l.215-.305 1.234-1.778 2.563-3.69.55-.79v7.008c0 .039 0 .082.008.117h2.551c.004-.035.004-.078.004-.117V7.043q.002-.112-.02-.219m20.52-.062a.8.8 0 0 0-.481-.086c-.047.008-.094.015-.141.031-.3.086-.473.332-.496.688q-.005.04-.004.082c.004.386.238.671.59.742q.07.01.152.015c.082-.015.168-.027.246-.05.297-.094.473-.34.489-.696.011-.37-.141-.605-.356-.726m0 0a.8.8 0 0 0-.481-.086c-.047.008-.094.015-.141.031-.3.086-.473.332-.496.688q-.005.04-.004.082c.004.386.238.671.59.742q.07.01.152.015c.082-.015.168-.027.246-.05.297-.094.473-.34.489-.696.011-.37-.141-.605-.356-.726m-3.208-.102q-.051.013-.098.031c-.257.098-.414.329-.445.66-.031.415.203.731.54.82a.8.8 0 0 0 .437-.015c.312-.094.496-.367.5-.734.004-.543-.414-.883-.934-.762m-.004 1.512a.8.8 0 0 0 .438-.016c.312-.094.496-.367.5-.734.004-.543-.414-.883-.934-.762q-.051.013-.098.031c-.257.098-.414.329-.445.66-.031.415.203.731.54.82m3.211-1.41a.8.8 0 0 0-.48-.086c-.047.008-.094.015-.141.031-.3.086-.473.332-.496.688q-.005.04-.004.082c.004.386.238.671.59.742q.07.01.152.015c.082-.015.168-.027.246-.05.297-.094.473-.34.489-.696.011-.37-.141-.605-.356-.726m3.285-.469q-.451 1.246-.91 2.492c-.117.309-.34.582-.637.735a1.1 1.1 0 0 1-.593.117 2 2 0 0 1-.395-.086q.087-.23.168-.457c.145.043.277.09.426.058.281-.062.445-.246.547-.5.011-.035-.004-.086-.02-.129q-.405-1.096-.808-2.199l-.04-.113h.512q.31.857.621 1.726h.028c.203-.574.41-1.148.62-1.73h.505c-.008.031-.012.059-.024.086m-2.922 2.36v-.22q-.03-.001-.043.005c-.222.246-.636.332-1.023.242a1.16 1.16 0 0 1-.617-.364 1 1 0 0 1-.145-.214 1.4 1.4 0 0 1-.148-.582 1.44 1.44 0 0 1 .21-.829c.024-.039.055-.078.083-.117.25-.3.738-.465 1.172-.367a1 1 0 0 1 .453.23c.008.008.023.016.054.04v-.27h.485v2.445ZM40.633 6.21h.48l.012.14c.043-.023.078-.038.117-.058q.124-.065.266-.102c.25-.066.523-.058.765.016a1.2 1.2 0 0 1 .457.27c.215.21.32.468.352.757.035.32-.012.63-.184.907a1.08 1.08 0 0 1-.746.511q-.229.049-.465.02h-.007a1.34 1.34 0 0 1-.559-.2v.915h-.488Zm-.824-.461v4.285l6.636-.008a2.555 2.555 0 0 0 2.563-2.543V5.75Zm1.855.91q-.051.013-.098.031c-.257.098-.414.329-.445.66-.031.415.203.731.54.82a.8.8 0 0 0 .437-.015c.312-.094.496-.367.5-.734.004-.543-.414-.883-.934-.762m3.207.102a.8.8 0 0 0-.48-.086c-.047.008-.094.015-.141.031-.3.086-.473.332-.496.688q-.005.04-.004.082c.004.386.238.671.59.742q.07.01.152.015c.082-.015.168-.027.246-.05.297-.094.473-.34.489-.696.011-.37-.141-.605-.356-.726m0 0a.8.8 0 0 0-.48-.086c-.047.008-.094.015-.141.031-.3.086-.473.332-.496.688q-.005.04-.004.082c.004.386.238.671.59.742q.07.01.152.015c.082-.015.168-.027.246-.05.297-.094.473-.34.489-.696.011-.37-.141-.605-.356-.726m-3.207-.102q-.051.013-.098.031c-.257.098-.414.329-.445.66-.031.415.203.731.54.82a.8.8 0 0 0 .437-.015c.312-.094.496-.367.5-.734.004-.543-.414-.883-.934-.762m0 0q-.051.013-.098.031c-.257.098-.414.329-.445.66-.031.415.203.731.54.82a.8.8 0 0 0 .437-.015c.312-.094.496-.367.5-.734.004-.543-.414-.883-.934-.762m0 0" style="stroke:none;fill-rule:nonzero;fill:#fff;fill-opacity:1"/></svg>