<svg xmlns="http://www.w3.org/2000/svg" role="img" width="38" height="24" fill="none" viewBox="0 0 38 24" aria-labelledby="pi-mispay"><title id="pi-mispay">MISpay</title> <g clip-path="url(#pi-mispay-clip)"><rect width="37" height="23" x=".5" y=".5" stroke="#000" stroke-opacity=".07" rx="1.5"/><rect width="36" height="22" x="1" y="1" fill="#6322d0" rx="1"/><path fill="#fff" d="M16.78 7.017v3.42q.236 0 .457-.053c.37-.088.699-.279.958-.542.363-.368.586-.877.586-1.438V7.017zm.755 4.047c-.46.373-.755.947-.755 1.592V17h2.001v-6.378c-.47 0-.904.165-1.246.442m8 .584a4 4 0 0 0-.183-.074c-.435-.161-.892-.269-1.334-.373-.26-.061-.527-.124-.784-.197-.405-.114-.799-.232-1.166-.405q-.56-.267-.494-.954c.03-.283.188-.5.39-.656a1.4 1.4 0 0 1 .439-.225c.25-.079.526-.12.796-.12.231 0 .591.031.93.19.18.083.353.203.498.372q.218.252.35.632.006.015.018.064c.093.354.121.461.277.461l.035-.001.016-.005.07-.013.764-.143.57-.106.177-.043-.034-.174-.018-.084a4 4 0 0 0-.115-.478c-.116-.384-.33-.91-.7-1.27l-.002-.002a3.2 3.2 0 0 0-.798-.56l-.02-.011-.011-.004a4.2 4.2 0 0 0-1.444-.425 4 4 0 0 0-.492-.027c-.419 0-.845.054-1.252.16-.98.254-1.846.812-2.226 1.657a2.3 2.3 0 0 0-.19.697c-.043.387.011.766.152 1.12.222.559.66 1.055 1.275 1.416q.239.14.515.252c.193.065.408.13.674.206l.372.105q.267.074.53.152c.175.051.352.093.524.134.272.064.528.125.772.221q.107.042.2.092c.411.219.597.542.55.963-.044.407-.307.693-.664.869-.303.15-.674.221-1.035.221q-.226 0-.43-.037a3.7 3.7 0 0 1-.84-.252c-.992-.445-1.177-1.198-1.247-1.483-.021-.084-.033-.131-.065-.175l-.07-.094-.22.049c-.359.08-.7.155-1.033.231l-.352.077.028.175q.083.507.24.941.033.086.07.168c.361.811 1.057 1.416 2.024 1.755q.018.008.032.012a6.177 6.177 0 0 0 .457.118q.321.074.636.108.264.03.55.03c1.749 0 3.711-.816 3.887-2.608a3 3 0 0 0 .014-.222v-.017c.016-1.134-.527-1.945-1.614-2.41M15.763 7.86q0-.007-.002-.015a1 1 0 0 0-.047-.173q-.004-.007-.008-.015a1 1 0 0 0-.078-.157l-.01-.019a1 1 0 0 0-.108-.14l-.015-.015a1 1 0 0 0-.145-.126l-.004-.004h-.002a1 1 0 0 0-.362-.157l-.001-.002a1 1 0 0 0-.182-.018l-.015-.002h-.006a1 1 0 0 0-.17.017q-.01 0-.015.002a1 1 0 0 0-.17.048q-.008.003-.015.007a.822.822 0 0 0-.155.08l-.02.01a1 1 0 0 0-.136.11l-.017.014a1 1 0 0 0-.126.152l-.005.007v.002l-.6.884-2 2.95v.001l-.96 1.415V8.034q-.001-.09-.016-.174l-.002-.015a1 1 0 0 0-.05-.173q0-.007-.004-.015a1 1 0 0 0-.079-.157q-.005-.011-.01-.019a1 1 0 0 0-.122-.155A1 1 0 0 0 9.96 7.2l-.004-.004h-.002a1 1 0 0 0-.361-.157q-.001-.003-.002-.002a1 1 0 0 0-.182-.018l-.014-.002H9.39a1 1 0 0 0-.171.017q-.007 0-.016.002a1 1 0 0 0-.17.048q-.007.003-.016.007a1 1 0 0 0-.153.08l-.02.01a1 1 0 0 0-.136.11l-.016.014a1 1 0 0 0-.122.147l-.004.005-.005.007v.002l-.6.885-2 2.95L5 12.717l-1.825 2.69a1.03 1.03 0 0 0-.161.751q.002.009.002.015c.01.06.029.118.048.174l.006.014a1.1 1.1 0 0 0 .198.317l.015.015q.067.07.143.125l.004.003q.002 0 .004.003.058.037.118.07.014.004.027.013.06.027.124.05l.013.002q.056.016.116.027l.037.006q.06.008.12.009h.023q.05-.002.097-.008l.032-.003q.04-.007.08-.015.017-.003.033-.009.038-.01.075-.023l.034-.012q.036-.014.071-.032l.03-.016a1 1 0 0 0 .089-.052q.012-.009.025-.018.034-.025.067-.053l.031-.029q.027-.025.051-.052l.027-.031a1 1 0 0 0 .059-.074q.005-.006.009-.013l.007-.008v-.001l1.13-1.667 2.001-2.952.428-.63V11.3v4.683q0 .09.015.174l.004.015q.016.09.047.174l.005.014q.035.084.08.157l.011.018q.047.077.108.142l.014.015a1 1 0 0 0 .146.125q0 .002.004.003l.001.003q.058.037.12.07.011.004.026.013.06.027.126.05l.01.002q.057.016.117.027l.038.006q.058.008.118.009h.023q.05-.002.099-.008l.03-.003q.043-.007.081-.015.016-.003.033-.009.038-.01.074-.023l.035-.012q.035-.014.07-.032.017-.007.032-.016a1 1 0 0 0 .087-.052q.013-.009.025-.018a1 1 0 0 0 .099-.082q.027-.025.05-.052.016-.015.03-.031a1 1 0 0 0 .067-.087l.006-.008v-.001l.166-.245.964-1.422 2-2.952.43-.632v5.607q-.001.049.005.093h1.99a1 1 0 0 0 .005-.093V8.034a1 1 0 0 0-.016-.174m16.01-.05a.6.6 0 0 0-.375-.068.6.6 0 0 0-.112.023c-.233.07-.368.265-.387.551l-.002.065c.003.308.185.536.46.593a1 1 0 0 0 .118.013c.065-.013.131-.02.194-.04.232-.075.369-.271.379-.557.01-.295-.109-.484-.275-.58m0 0a.6.6 0 0 0-.375-.068.6.6 0 0 0-.112.023c-.233.07-.368.265-.387.551l-.002.065c.003.308.185.536.46.593a1 1 0 0 0 .118.013c.065-.013.131-.02.194-.04.232-.075.369-.271.379-.557.01-.295-.109-.484-.275-.58m-2.504-.08a1 1 0 0 0-.074.023c-.203.077-.326.264-.348.529-.026.33.157.585.419.655a.6.6 0 0 0 .343-.012c.243-.076.387-.294.388-.589.004-.432-.322-.703-.728-.607m-.003 1.207a.6.6 0 0 0 .343-.012c.243-.076.387-.294.388-.589.004-.432-.322-.703-.728-.607a1 1 0 0 0-.074.024c-.203.077-.326.264-.348.529-.026.33.157.585.419.655m2.507-1.126a.6.6 0 0 0-.375-.069.6.6 0 0 0-.112.023c-.233.07-.368.265-.387.551l-.002.065c.003.308.185.536.46.593a1 1 0 0 0 .118.013c.065-.013.131-.02.194-.04.232-.075.369-.271.379-.557.01-.295-.109-.484-.275-.58m2.563-.376q-.355.997-.712 1.992a1.08 1.08 0 0 1-.497.589.8.8 0 0 1-.463.094 1.3 1.3 0 0 1-.306-.07l.13-.365c.111.035.216.07.331.046.222-.048.35-.196.426-.398.011-.028-.003-.071-.015-.103q-.312-.88-.628-1.76l-.032-.093h.4l.485 1.382h.019c.16-.46.322-.918.485-1.382h.395q-.007.036-.018.068m-2.282 1.888v-.177c-.016.002-.027 0-.031.005-.174.196-.498.266-.799.194a.9.9 0 0 1-.482-.29 1 1 0 0 1-.113-.173 1.15 1.15 0 0 1-.114-.466 1.2 1.2 0 0 1 .162-.662 1 1 0 0 1 .066-.094c.195-.24.576-.371.912-.293a.77.77 0 0 1 .353.183c.008.008.018.013.043.032v-.215h.38v1.956zm-3.588-1.956h.375l.008.115.09-.048a1.06 1.06 0 0 1 .805-.067.9.9 0 0 1 .359.215.98.98 0 0 1 .272.606c.028.256-.008.501-.14.724a.86.86 0 0 1-.584.411 1.2 1.2 0 0 1-.369.015 1.1 1.1 0 0 1-.435-.158v.73h-.381zM27.822 7v3.429l5.177-.008c1.105 0 2.001-.91 2.001-2.034V7zm1.448.73a1 1 0 0 0-.074.023c-.203.077-.326.264-.348.529-.026.33.157.585.419.655a.6.6 0 0 0 .343-.012c.243-.076.387-.294.388-.589.004-.432-.322-.703-.728-.607m2.504.08a.6.6 0 0 0-.375-.068.6.6 0 0 0-.112.023c-.233.07-.368.265-.387.551l-.002.065c.003.308.185.536.46.593a1 1 0 0 0 .118.013c.065-.013.131-.02.194-.04.232-.075.369-.271.379-.557.01-.295-.109-.484-.275-.58m0 0a.6.6 0 0 0-.375-.068.6.6 0 0 0-.112.023c-.233.07-.368.265-.387.551l-.002.065c.003.308.185.536.46.593a1 1 0 0 0 .118.013c.065-.013.131-.02.194-.04.232-.075.369-.271.379-.557.01-.295-.109-.484-.275-.58m-2.504-.08a1 1 0 0 0-.074.023c-.203.077-.326.264-.348.529-.026.33.157.585.419.655a.6.6 0 0 0 .343-.012c.243-.076.387-.294.388-.589.004-.432-.322-.703-.728-.607m0 0a1 1 0 0 0-.074.023c-.203.077-.326.264-.348.529-.026.33.157.585.419.655a.6.6 0 0 0 .343-.012c.243-.076.387-.294.388-.589.004-.432-.322-.703-.728-.607"/></g><defs><clipPath id="pi-mispay-clip"><path fill="#fff" d="M0 0h38v24H0z"/></clipPath></defs></svg>
